<svg viewBox="0 0 64 64" xmlns="http://www.w3.org/2000/svg" role="img" aria-label="Golden Shark">
  <defs>
    <linearGradient id="g" x1="0" y1="0" x2="0" y2="1">
      <stop offset="0" stop-color="#f0d68a"/>
      <stop offset="0.5" stop-color="#d4af5a"/>
      <stop offset="1" stop-color="#a87f33"/>
    </linearGradient>
  </defs>
  <rect x="2" y="2" width="60" height="60" rx="14" fill="#0e2024"/>
  <path fill="url(#g)" d="M32 12
    C32 12 11 30 11 44
    C11 53 18 56 24 54
    C27 53 29 51 31 48
    C30 56 27 61 23 64
    L41 64
    C37 61 34 56 33 48
    C35 51 37 53 40 54
    C46 56 53 53 53 44
    C53 30 32 12 32 12 Z"/>
</svg>
