<svg viewBox="0 0 100 100" xmlns="http://www.w3.org/2000/svg" role="img" aria-label="Golden Shark">
  <defs>
    <linearGradient id="gold" x1="0" y1="0" x2="0" y2="1">
      <stop offset="0" stop-color="#f0d68a"/>
      <stop offset="0.5" stop-color="#d4af5a"/>
      <stop offset="1" stop-color="#a87f33"/>
    </linearGradient>
  </defs>
  <circle cx="50" cy="50" r="47" fill="#0e2024" stroke="url(#gold)" stroke-width="3"/>
  <circle cx="50" cy="50" r="40" fill="none" stroke="#d4af5a" stroke-width="1" opacity="0.35"/>
  <path fill="url(#gold)" d="M50 24
    C50 24 26 44 26 59
    C26 69 34 73 41 71
    C44 70 47 68 49 65
    C48 73 45 79 40 83
    L60 83
    C55 79 52 73 51 65
    C53 68 56 70 59 71
    C66 73 74 69 74 59
    C74 44 50 24 50 24 Z"/>
</svg>
